<svg width="35" height="46" viewBox="0 0 35 46" fill="none" xmlns="http://www.w3.org/2000/svg">
<path d="M10.5176 45.9736C12.1548 45.9736 13.4819 45.1991 13.4819 44.2438C13.4819 43.2885 12.1548 42.514 10.5176 42.514C8.88041 42.514 7.55322 43.2885 7.55322 44.2438C7.55322 45.1991 8.88041 45.9736 10.5176 45.9736Z" fill="#243453"/>
<path d="M27.9629 39.1327C28.9498 38.1504 29.3457 36.9519 28.847 36.4556C28.3483 35.9593 27.144 36.3533 26.1571 37.3355C25.1702 38.3177 24.7744 39.5162 25.273 40.0125C25.7717 40.5088 26.976 40.1149 27.9629 39.1327Z" fill="#243453"/>
<path d="M28.9915 10.2872C29.4943 9.78677 29.0943 8.5773 28.098 7.58578C27.1017 6.59425 25.8864 6.19614 25.3836 6.69656C24.8808 7.19699 25.2808 8.40645 26.2771 9.39798C27.2734 10.3895 28.4887 10.7876 28.9915 10.2872Z" fill="#243453"/>
<path d="M10.6506 4.02947C12.2874 3.90413 13.555 3.03627 13.4819 2.09106C13.4088 1.14585 12.0227 0.481212 10.386 0.606551C8.74921 0.731889 7.48161 1.59974 7.55469 2.54495C7.62777 3.49017 9.01386 4.1548 10.6506 4.02947Z" fill="#243453"/>
<path d="M25.5579 9.89232C24.4009 8.40662 22.5162 7.93438 21.3486 8.8311C21.3006 8.86825 21.2579 8.90539 21.2126 8.94518C21.2126 8.94518 11.3225 17.618 0.75267 28.7899C0.679296 28.8594 0.609877 28.9329 0.544738 29.0101C0.173017 29.4637 -0.0200374 30.0365 0.00164694 30.6215C0.0233313 31.2064 0.258271 31.7635 0.662567 32.1886C1.06686 32.6137 1.61285 32.8778 2.19852 32.9314C2.78419 32.9851 3.36947 32.8248 3.84499 32.4803C3.9307 32.4181 4.01178 32.3499 4.08758 32.276L8.8087 28.2965C8.94948 28.1774 9.13115 28.1172 9.31556 28.1286C9.49997 28.14 9.67277 28.222 9.7977 28.3575C10.0083 28.5803 10.9333 29.5646 12.069 30.6471C14.1864 32.6465 16.4486 34.4882 18.8374 36.1574C19.8611 36.8684 20.7275 37.4176 21.3086 37.7731C21.7534 38.1068 22.2951 38.2874 22.8521 38.2878C23.2108 38.2795 23.5644 38.201 23.8926 38.0566C24.2208 37.9122 24.5172 37.7048 24.7648 37.4464C25.0124 37.1879 25.2063 36.8833 25.3356 36.5502C25.4648 36.217 25.5267 35.8618 25.5179 35.5048C25.5204 35.0616 25.4179 34.624 25.2188 34.2276C25.0196 33.8312 24.7294 33.4871 24.3716 33.2232C23.7318 32.6925 22.8921 32.0001 21.9377 31.1405C20.173 29.5487 18.9414 28.2514 18.6241 27.9171C18.0297 27.2856 16.9127 26.0759 15.6118 24.4469C15.3737 24.1483 15.2617 23.7693 15.2995 23.3899C15.3373 23.0106 15.522 22.6608 15.8144 22.4147L25.4113 14.3309C25.4592 14.299 25.5099 14.2645 25.5552 14.23C26.7042 13.3094 26.7122 11.3754 25.5579 9.89232Z" fill="#243453"/>
<path d="M34.443 23.6722C34.443 22.3032 33.8218 21.1942 33.0541 21.1942C32.9272 21.1988 32.8025 21.2283 32.6872 21.2811C32.5719 21.334 32.4683 21.409 32.3823 21.502L28.9594 25.5824C28.8755 25.6838 28.7688 25.7642 28.648 25.8172C28.5271 25.8702 28.3955 25.8942 28.2636 25.8875C28.1091 25.8936 27.9561 25.855 27.8231 25.7764C27.6902 25.6978 27.583 25.5824 27.5146 25.4444C27.4597 25.3152 27.4393 25.174 27.4552 25.0346C27.471 24.8952 27.5227 24.7623 27.6052 24.6485L30.9108 19.8916C31.3386 19.2667 31.5612 18.5252 31.5479 17.7692C31.5479 16.0845 30.5376 14.7208 29.29 14.7208C28.8484 14.7276 28.4239 14.8913 28.093 15.1825C28.0198 15.2446 27.9504 15.3111 27.8851 15.3814L21.7804 21.1916C21.1455 21.707 20.7181 22.4326 20.5763 23.2358C20.4346 24.039 20.588 24.8661 21.0086 25.566C21.4291 26.2659 22.0886 26.7918 22.8667 27.0476C23.6447 27.3034 24.4892 27.2721 25.246 26.9593C25.4261 26.8828 25.6264 26.8674 25.8162 26.9153C26.006 26.9632 26.1747 27.0719 26.2963 27.2246C26.4396 27.4049 26.5604 27.6018 26.6562 27.8109C26.8407 28.2358 26.8989 28.7045 26.8241 29.1613C26.6615 30.2783 27.0134 31.2838 27.7891 31.6101C28.6155 31.9709 29.6552 31.4854 30.3936 30.4931L33.9071 25.6381C34.2805 25.0514 34.4673 24.3662 34.443 23.6722Z" fill="#243453"/>
<path d="M11.6502 12.3171C13.283 12.3171 14.6066 10.9998 14.6066 9.37484C14.6066 7.74989 13.283 6.43262 11.6502 6.43262C10.0175 6.43262 8.69385 7.74989 8.69385 9.37484C8.69385 10.9998 10.0175 12.3171 11.6502 12.3171Z" fill="#243453"/>
<path d="M5.10851 19.1779C7.31987 19.1779 9.11253 17.3938 9.11253 15.193C9.11253 12.9922 7.31987 11.2081 5.10851 11.2081C2.89715 11.2081 1.10449 12.9922 1.10449 15.193C1.10449 17.3938 2.89715 19.1779 5.10851 19.1779Z" fill="#243453"/>
<path d="M32.4434 15.7366C32.7913 15.5849 32.7888 14.8156 32.4379 14.0185C32.0869 13.2213 31.5204 12.698 31.1724 12.8497C30.8245 13.0014 30.827 13.7706 31.1779 14.5678C31.5289 15.365 32.0955 15.8883 32.4434 15.7366Z" fill="#243453"/>
<path d="M21.5223 43.7409C22.38 43.3088 22.877 42.5685 22.6323 42.0874C22.3876 41.6063 21.4939 41.5666 20.6361 41.9988C19.7784 42.4309 19.2814 43.1712 19.5261 43.6523C19.7708 44.1334 20.6645 44.1731 21.5223 43.7409Z" fill="#243453"/>
<path d="M32.2527 33.0054C32.5574 32.3176 32.5215 31.6359 32.1726 31.4829C31.8237 31.3298 31.2938 31.7632 30.9892 32.451C30.6845 33.1388 30.7204 33.8205 31.0693 33.9736C31.4182 34.1267 31.948 33.6932 32.2527 33.0054Z" fill="#243453"/>
<path d="M21.3752 2.74765C20.5541 2.38684 19.7384 2.31255 19.2426 2.50622C18.5868 2.7503 17.9097 2.96785 17.2272 3.25969C16.6061 3.52499 16.5954 3.47458 16.1609 3.66295C16.0898 3.69125 16.0205 3.72309 15.953 3.75846C15.5769 3.92816 15.2558 4.19874 15.0255 4.53988C14.7953 4.88101 14.665 5.27922 14.6494 5.68987C14.6494 6.94476 15.873 7.96088 17.3819 7.96088C18.0877 7.96971 18.7743 7.73222 19.3225 7.28966C19.9837 6.83333 20.0103 6.75905 20.8234 6.24966C21.4898 5.83844 22.031 5.43783 22.6681 5.07171C22.8226 5.00289 22.9473 4.88156 23.02 4.72947C23.2733 4.1458 22.5402 3.25704 21.3752 2.74765Z" fill="#243453"/>
<path d="M18.8212 39.1049C17.8908 38.309 17.0218 37.582 16.0408 36.6323C14.9745 35.6029 13.9881 34.5868 13.0791 33.5998C12.7182 33.2157 12.2807 32.9109 11.7945 32.7048C11.3084 32.4988 10.7844 32.3961 10.256 32.4033C8.25133 32.4086 6.65186 33.8147 6.65186 35.5472C6.66145 36.0343 6.78969 36.5119 7.02556 36.9389C7.26144 37.3659 7.5979 37.7295 8.00608 37.9986L8.03007 38.0145C8.08605 38.0516 8.13937 38.0888 8.19802 38.1233C9.44294 38.9192 10.7998 39.7443 12.266 40.5455C13.3697 41.1451 14.436 41.6881 15.465 42.1745H15.4916C15.9689 42.4329 16.5051 42.5645 17.0484 42.5565C18.4906 42.5565 19.6609 41.6677 19.6609 40.5667C19.6505 40.2736 19.5686 39.9873 19.4223 39.7327C19.2761 39.478 19.0698 39.2626 18.8212 39.1049Z" fill="#243453"/>
</svg>
