<svg width="25" height="25" viewBox="0 0 25 25" fill="none" xmlns="http://www.w3.org/2000/svg">
<g clip-path="url(#clip0_8_3056)">
<path d="M24.7696 13.3279L23.309 11.0241L24.1754 8.4385C24.2325 8.26749 24.2288 8.08199 24.1648 7.91342C24.1009 7.74484 23.9806 7.60356 23.8244 7.5135L21.461 6.151L21.0263 3.45869C20.9971 3.28069 20.9074 3.11819 20.7724 2.99858C20.6374 2.87896 20.4652 2.80952 20.285 2.80196L17.559 2.69523L15.9235 0.512537C15.8154 0.368096 15.6606 0.265579 15.4855 0.222449C15.3103 0.179319 15.1256 0.198243 14.9629 0.275999L12.5004 1.44715L10.0369 0.275037C9.87392 0.19812 9.68938 0.179744 9.51441 0.223005C9.33944 0.266267 9.18473 0.368521 9.07635 0.512537L7.44077 2.69523L4.71481 2.80196C4.53472 2.80916 4.36265 2.87837 4.22773 2.99787C4.0928 3.11737 4.00332 3.27983 3.97442 3.45773L3.53981 6.15004L1.17635 7.51254C1.01998 7.60245 0.899507 7.74367 0.835367 7.91225C0.771226 8.08084 0.76736 8.26642 0.824424 8.43754L1.69077 11.0231L0.231154 13.3279C0.134869 13.4805 0.0942408 13.6616 0.116142 13.8407C0.138044 14.0198 0.221131 14.1858 0.351347 14.3106L2.31962 16.1981L2.09846 18.9154C2.08375 19.0952 2.13161 19.2746 2.23393 19.4232C2.33626 19.5718 2.48677 19.6804 2.66 19.7308L5.28019 20.4856L6.34654 22.9962C6.41655 23.1626 6.54218 23.2995 6.70196 23.3835C6.86174 23.4675 7.04574 23.4934 7.2225 23.4568L9.89558 22.9087L12.0052 24.6366C12.1485 24.7529 12.3244 24.8135 12.5004 24.8135C12.6763 24.8135 12.8513 24.7529 12.9956 24.6366L15.1052 22.9087L17.7783 23.4568C18.1408 23.5337 18.509 23.3385 18.6542 22.9962L19.7206 20.4856L22.3408 19.7308C22.5141 19.6806 22.6647 19.572 22.7671 19.4233C22.8694 19.2747 22.9172 19.0953 22.9023 18.9154L22.6812 16.1981L24.6494 14.3106C24.7796 14.1858 24.8627 14.0198 24.8846 13.8407C24.9065 13.6616 24.8659 13.4805 24.7696 13.3279ZM18.1513 9.56734L12.6792 17.7654C12.4725 18.0712 12.1523 18.276 11.834 18.276C11.5167 18.276 11.1619 18.0981 10.936 17.8712L6.91865 13.7895C6.78697 13.6544 6.71327 13.4733 6.71327 13.2847C6.71327 13.096 6.78697 12.9149 6.91865 12.7798L7.91 11.7702C7.97496 11.7049 8.0522 11.6531 8.13726 11.6177C8.22233 11.5823 8.31355 11.5641 8.40567 11.5641C8.4978 11.5641 8.58902 11.5823 8.67408 11.6177C8.75915 11.6531 8.83638 11.7049 8.90135 11.7702L11.5158 14.426L15.8273 7.96638C15.8784 7.88935 15.9443 7.82327 16.0213 7.772C16.0982 7.72072 16.1845 7.68528 16.2753 7.66773C16.3661 7.65019 16.4594 7.6509 16.5499 7.66982C16.6404 7.68873 16.7262 7.72548 16.8023 7.77792L17.9648 8.57696C18.285 8.79811 18.3677 9.24331 18.1513 9.56734Z" fill="white"/>
</g>
<defs>
<clipPath id="clip0_8_3056">
<rect width="25" height="25" fill="white"/>
</clipPath>
</defs>
</svg>
