<svg width="49" height="58" viewBox="0 0 49 58" fill="none" xmlns="http://www.w3.org/2000/svg">
<path d="M14.6048 34.1418L20.9297 57.9177L0 34.1418H14.6048Z" fill="#243453"/>
<path d="M14.7198 30.7523H0L9.67628 21.061C9.98842 20.7484 10.432 20.5674 10.8755 20.5674H20.5354L14.7198 30.7523Z" fill="#243453"/>
<path d="M31.2466 30.7524H16.9375L24.4453 20.551L31.2466 30.7524Z" fill="#243453"/>
<path d="M30.7699 34.2241L24.445 58L18.1201 34.2241H30.7699Z" fill="#243453"/>
<path d="M34.1711 30.7523L28.3555 20.5674H38.0153C38.4589 20.5674 38.9024 20.7484 39.2146 21.061L48.8909 30.7523H34.1711Z" fill="#243453"/>
<path d="M34.2858 34.2241H48.8906L27.9609 58L34.2858 34.2241Z" fill="#243453"/>
<path d="M24.445 9.67489C23.5086 9.67489 22.7529 8.91801 22.7529 7.98014V1.69475C22.7529 0.756877 23.5086 0 24.445 0C25.3815 0 26.1372 0.756877 26.1372 1.69475V7.98014C26.1372 8.91801 25.3815 9.67489 24.445 9.67489Z" fill="#243453"/>
<path d="M7.58997 13.1796L4.45218 7.73335C3.97575 6.92711 4.25502 5.87406 5.07644 5.41335C5.88142 4.93618 6.93284 5.21591 7.39284 6.0386L10.5307 11.4848C11.0071 12.2911 10.7278 13.3441 9.90637 13.8048C9.10138 14.2656 8.06639 14.0023 7.58997 13.1796Z" fill="#243453"/>
<path d="M38.9845 13.7884C38.1795 13.3112 37.9003 12.2746 38.3602 11.4684L41.4981 6.02215C41.9745 5.21591 43.0095 4.9362 43.8144 5.39691C44.6194 5.87407 44.8987 6.91066 44.4387 7.7169L41.3009 13.1631C40.8245 13.9858 39.7895 14.2491 38.9845 13.7884Z" fill="#243453"/>
</svg>
