<svg width="41" height="29" viewBox="0 0 41 29" fill="none" xmlns="http://www.w3.org/2000/svg">
<path d="M41 14.375C41 14.2769 41 14.1653 40.9954 14.0359C40.9908 13.6744 40.9817 13.2682 40.9725 12.8353C40.9359 11.5902 40.8719 10.3495 40.7712 9.18021C40.6339 7.5691 40.4326 6.22576 40.158 5.21714C39.8683 4.16456 39.3004 3.20459 38.511 2.43316C37.7217 1.66174 36.7386 1.10589 35.6599 0.821175C34.365 0.481994 31.8299 0.272237 28.2607 0.142813C26.5631 0.0803323 24.7464 0.0401659 22.9298 0.0178514C22.2937 0.00892555 21.7035 0.00446291 21.1727 0H19.8273C19.2965 0.00446291 18.7062 0.00892555 18.0702 0.0178514C16.2536 0.0401659 14.4369 0.0803323 12.7393 0.142813C9.17009 0.2767 6.63047 0.486457 5.34007 0.821175C4.26108 1.10519 3.27757 1.66081 2.48811 2.43234C1.69866 3.20387 1.13098 4.16422 0.841964 5.21714C0.562835 6.22576 0.366071 7.5691 0.228795 9.18021C0.128125 10.3495 0.0640624 11.5902 0.0274553 12.8353C0.0137276 13.2682 0.00915172 13.6744 0.00457582 14.0359C0.00457582 14.1653 0 14.2769 0 14.375V14.625C0 14.7231 -6.98908e-08 14.8347 0.00457582 14.9641C0.00915172 15.3256 0.0183035 15.7318 0.0274553 16.1647C0.0640624 17.4098 0.128125 18.6505 0.228795 19.8198C0.366071 21.4309 0.567411 22.7742 0.841964 23.7829C1.42768 25.9206 3.14821 27.6076 5.34007 28.1788C6.63047 28.518 9.17009 28.7278 12.7393 28.8572C14.4369 28.9197 16.2536 28.9598 18.0702 28.9821C18.7062 28.9911 19.2965 28.9955 19.8273 29H21.1727C21.7035 28.9955 22.2937 28.9911 22.9298 28.9821C24.7464 28.9598 26.5631 28.9197 28.2607 28.8572C31.8299 28.7233 34.3695 28.5135 35.6599 28.1788C37.8518 27.6076 39.5723 25.9251 40.158 23.7829C40.4372 22.7742 40.6339 21.4309 40.7712 19.8198C40.8719 18.6505 40.9359 17.4098 40.9725 16.1647C40.9863 15.7318 40.9908 15.3256 40.9954 14.9641C40.9954 14.8347 41 14.7231 41 14.625V14.375ZM37.7054 14.6071C37.7054 14.7008 37.7054 14.8035 37.7008 14.924C37.6962 15.2721 37.6871 15.6559 37.6779 16.0709C37.6459 17.2581 37.5818 18.4452 37.4857 19.5476C37.3622 20.9846 37.1883 22.1628 36.9732 22.9528C36.6895 23.9837 35.8567 24.8004 34.8042 25.0726C33.8433 25.3226 31.4227 25.5234 28.1326 25.6439C26.467 25.7064 24.6732 25.7465 22.884 25.7689C22.2571 25.7778 21.676 25.7822 21.1544 25.7822H19.8456L18.116 25.7689C16.3268 25.7465 14.5376 25.7064 12.8674 25.6439C9.57734 25.5189 7.15212 25.3226 6.19576 25.0726C5.1433 24.7959 4.31049 23.9837 4.02679 22.9528C3.81172 22.1628 3.63784 20.9846 3.51429 19.5476C3.41819 18.4452 3.35871 17.2581 3.3221 16.0709C3.30837 15.6559 3.30379 15.2676 3.29922 14.924C3.29922 14.8035 3.29464 14.6964 3.29464 14.6071V14.3929C3.29464 14.2992 3.29464 14.1965 3.29922 14.076C3.30379 13.7279 3.31295 13.3441 3.3221 12.9291C3.35413 11.7419 3.41819 10.5548 3.51429 9.45245C3.63784 8.01539 3.81172 6.83718 4.02679 6.04724C4.31049 5.01631 5.1433 4.1996 6.19576 3.92736C7.1567 3.67744 9.57734 3.47661 12.8674 3.35611C14.533 3.29363 16.3268 3.25346 18.116 3.23115C18.7429 3.22222 19.324 3.21776 19.8456 3.21776H21.1544L22.884 3.23115C24.6732 3.25346 26.4624 3.29363 28.1326 3.35611C31.4227 3.48107 33.8479 3.67744 34.8042 3.92736C35.8567 4.20406 36.6895 5.01631 36.9732 6.04724C37.1883 6.83718 37.3622 8.01539 37.4857 9.45245C37.5818 10.5548 37.6413 11.7419 37.6779 12.9291C37.6916 13.3441 37.6962 13.7324 37.7008 14.076C37.7008 14.1965 37.7054 14.3036 37.7054 14.3929V14.6071ZM16.4275 20.4803L27.0435 14.4554L16.4275 8.5197V20.4803Z" fill="white"/>
</svg>
