<svg width="311" height="77" viewBox="0 0 311 77" fill="none" xmlns="http://www.w3.org/2000/svg">
<path d="M17.5282 76.6944C20.2567 76.6944 22.4686 75.3917 22.4686 73.7847C22.4686 72.1777 20.2567 70.875 17.5282 70.875C14.7998 70.875 12.5879 72.1777 12.5879 73.7847C12.5879 75.3917 14.7998 76.6944 17.5282 76.6944Z" fill="black"/>
<path d="M46.6029 65.1871C48.2477 63.5349 48.9074 61.5188 48.0763 60.684C47.2452 59.8492 45.2382 60.5118 43.5934 62.164C41.9486 63.8162 41.2889 65.8323 42.12 66.6671C42.9511 67.5019 44.9582 66.8392 46.6029 65.1871Z" fill="black"/>
<path d="M48.3173 16.6658C49.1553 15.8241 48.4886 13.7896 46.8282 12.1217C45.1678 10.4539 43.1425 9.78421 42.3045 10.626C41.4664 11.4678 42.1331 13.5022 43.7935 15.1701C45.4539 16.8379 47.4793 17.5076 48.3173 16.6658Z" fill="black"/>
<path d="M17.7502 6.13941C20.478 5.92858 22.5906 4.46875 22.4688 2.8788C22.347 1.28884 20.037 0.170846 17.3092 0.38168C14.5814 0.592513 12.4689 2.05234 12.5906 3.64229C12.7124 5.23225 15.0225 6.35024 17.7502 6.13941Z" fill="black"/>
<path d="M42.5943 16.0015C40.6661 13.5024 37.5251 12.708 35.5792 14.2164C35.4992 14.2789 35.4281 14.3414 35.3526 14.4083C35.3526 14.4083 18.8699 28.9969 1.25439 47.7894C1.1321 47.9063 1.01641 48.0299 0.90785 48.1598C0.288347 48.9228 -0.033394 49.8863 0.00274476 50.8702C0.0388835 51.8542 0.430429 52.7912 1.10422 53.5063C1.77801 54.2214 2.68795 54.6656 3.66402 54.7559C4.64008 54.8462 5.61549 54.5764 6.40799 53.997C6.55083 53.8924 6.68595 53.7776 6.81228 53.6534L14.6804 46.9593C14.915 46.759 15.2178 46.6578 15.5251 46.677C15.8325 46.6961 16.1205 46.8341 16.3287 47.062C16.6797 47.4368 18.2213 49.0925 20.1139 50.9133C23.6427 54.2765 27.4129 57.3746 31.3941 60.1823C33.1001 61.3783 34.544 62.3021 35.5125 62.9001C36.2538 63.4614 37.1566 63.7653 38.0849 63.7659C38.6827 63.752 39.272 63.6198 39.819 63.377C40.366 63.1341 40.8599 62.7853 41.2725 62.3505C41.6852 61.9157 42.0084 61.4034 42.2238 60.843C42.4391 60.2826 42.5424 59.6851 42.5276 59.0845C42.5318 58.339 42.361 57.603 42.0291 56.9362C41.6972 56.2694 41.2135 55.6905 40.6172 55.2466C39.551 54.354 38.1515 53.1893 36.561 51.7434C33.6199 49.0657 31.5673 46.8835 31.0387 46.3212C30.0479 45.259 28.1864 43.224 26.0183 40.4839C25.6215 39.9817 25.4348 39.3441 25.4978 38.706C25.5609 38.068 25.8686 37.4796 26.356 37.0655L42.3499 23.4676C42.4299 23.4141 42.5143 23.356 42.5898 23.298C44.5047 21.7495 44.518 18.4961 42.5943 16.0015Z" fill="black"/>
<path d="M57.4026 39.1807C57.4026 36.878 56.3674 35.0126 55.0879 35.0126C54.8765 35.0202 54.6687 35.0699 54.4765 35.1587C54.2843 35.2476 54.1116 35.3739 53.9683 35.5302L48.2638 42.3939C48.1239 42.5645 47.9461 42.6998 47.7448 42.7889C47.5434 42.878 47.324 42.9185 47.1043 42.9071C46.8467 42.9174 46.5917 42.8525 46.3701 42.7203C46.1486 42.588 45.9699 42.394 45.8559 42.1618C45.7645 41.9444 45.7304 41.707 45.7569 41.4725C45.7833 41.2381 45.8694 41.0144 46.0069 40.823L51.5159 32.8214C52.2289 31.7702 52.5999 30.5229 52.5778 29.2512C52.5778 26.4174 50.8939 24.1235 48.8147 24.1235C48.0789 24.1349 47.3713 24.4104 46.8199 24.9C46.698 25.0047 46.5822 25.1164 46.4734 25.2348L36.2995 35.0081C35.2412 35.8751 34.5289 37.0956 34.2928 38.4467C34.0566 39.7977 34.3122 41.189 35.0131 42.3663C35.7139 43.5436 36.8131 44.4283 38.1098 44.8586C39.4064 45.2889 40.8139 45.2362 42.0751 44.71C42.3752 44.5814 42.7091 44.5554 43.0254 44.636C43.3417 44.7166 43.6228 44.8994 43.8255 45.1563C44.0643 45.4595 44.2657 45.7907 44.4253 46.1426C44.7327 46.8573 44.8299 47.6456 44.7052 48.4141C44.4342 50.2929 45.0206 51.9843 46.3135 52.5332C47.6907 53.1401 49.4234 52.3234 50.654 50.6544L56.5096 42.4876C57.1319 41.5008 57.4432 40.3482 57.4026 39.1807Z" fill="black"/>
<path d="M19.4163 20.0804C22.1374 20.0804 24.3433 17.8646 24.3433 15.1313C24.3433 12.3979 22.1374 10.1821 19.4163 10.1821C16.6952 10.1821 14.4893 12.3979 14.4893 15.1313C14.4893 17.8646 16.6952 20.0804 19.4163 20.0804Z" fill="black"/>
<path d="M8.51385 31.6211C12.1993 31.6211 15.1869 28.62 15.1869 24.9181C15.1869 21.2161 12.1993 18.2151 8.51385 18.2151C4.82844 18.2151 1.84082 21.2161 1.84082 24.9181C1.84082 28.62 4.82844 31.6211 8.51385 31.6211Z" fill="black"/>
<path d="M54.0684 25.8325C54.6482 25.5773 54.6441 24.2834 54.0592 22.9424C53.4743 21.6014 52.5301 20.7212 51.9503 20.9764C51.3704 21.2316 51.3745 22.5255 51.9594 23.8665C52.5443 25.2075 53.4885 26.0877 54.0684 25.8325Z" fill="black"/>
<path d="M35.8689 72.9387C37.2984 72.2118 38.1267 70.9665 37.7189 70.1573C37.311 69.3481 35.8216 69.2814 34.3921 70.0083C32.9626 70.7352 32.1343 71.9805 32.5421 72.7897C32.95 73.5989 34.4394 73.6656 35.8689 72.9387Z" fill="black"/>
<path d="M53.7517 54.8804C54.2595 53.7234 54.1997 52.5768 53.6182 52.3193C53.0367 52.0618 52.1537 52.7909 51.6459 53.9479C51.1382 55.1048 51.198 56.2515 51.7795 56.509C52.361 56.7665 53.244 56.0373 53.7517 54.8804Z" fill="black"/>
<path d="M35.6231 3.98336C34.2548 3.37643 32.8953 3.25147 32.0689 3.57725C30.976 3.98782 29.8476 4.35376 28.7102 4.84466C27.675 5.29093 27.6573 5.20614 26.9331 5.52299C26.8146 5.5706 26.6991 5.62415 26.5866 5.68365C25.9598 5.96911 25.4246 6.42426 25.0409 6.99808C24.6572 7.57191 24.4401 8.24174 24.4141 8.93251C24.4141 11.0434 26.4533 12.7526 28.9679 12.7526C30.1442 12.7674 31.2886 12.368 32.2022 11.6235C33.304 10.8559 33.3485 10.731 34.7035 9.87414C35.8142 9.18242 36.7161 8.50855 37.7779 7.89269C38.0353 7.77692 38.2432 7.57282 38.3643 7.317C38.7864 6.33521 37.5646 4.8402 35.6231 3.98336Z" fill="black"/>
<path d="M31.3671 65.1404C29.8166 63.8015 28.3683 62.5788 26.7333 60.9811C24.9562 59.2496 23.3124 57.5404 21.7974 55.8802C21.196 55.2341 20.4668 54.7213 19.6566 54.3747C18.8464 54.0281 17.9731 53.8554 17.0926 53.8675C13.7516 53.8765 11.0859 56.2417 11.0859 59.1559C11.1019 59.9753 11.3156 60.7786 11.7088 61.4969C12.1019 62.2151 12.6626 62.8268 13.3429 63.2794L13.3828 63.3062C13.4761 63.3687 13.565 63.4311 13.6627 63.4892C15.7375 64.828 17.9989 66.2159 20.4424 67.5636C22.2817 68.5722 24.0588 69.4856 25.7737 70.3037H25.8181C26.6136 70.7385 27.5072 70.9598 28.4127 70.9463C30.8162 70.9463 32.7666 69.4513 32.7666 67.5993C32.7492 67.1062 32.6128 66.6247 32.369 66.1963C32.1252 65.768 31.7814 65.4056 31.3671 65.1404Z" fill="black"/>
<path d="M132.751 51.2615H123.546C121.507 51.1926 119.575 50.3307 118.157 48.8577C116.739 47.3847 115.946 45.4159 115.946 43.3669C115.946 41.318 116.739 39.3492 118.157 37.8762C119.575 36.4032 121.507 35.5413 123.546 35.4724H132.751C133.35 35.4724 133.924 35.7113 134.347 36.1364C134.77 36.5616 135.008 37.1382 135.008 37.7395C135.008 38.3407 134.77 38.9174 134.347 39.3425C133.924 39.7677 133.35 40.0065 132.751 40.0065H123.546C122.658 40.0065 121.808 40.3606 121.18 40.9908C120.553 41.621 120.2 42.4757 120.2 43.3669C120.2 44.2582 120.553 45.1129 121.18 45.7431C121.808 46.3733 122.658 46.7274 123.546 46.7274H132.751C133.35 46.7274 133.924 46.9662 134.347 47.3914C134.77 47.8165 135.008 48.3932 135.008 48.9944C135.008 49.5957 134.77 50.1723 134.347 50.5975C133.924 51.0226 133.35 51.2615 132.751 51.2615Z" fill="black"/>
<path d="M132.751 30.3224H118.09C117.491 30.3224 116.917 30.0836 116.494 29.6584C116.071 29.2333 115.833 28.6566 115.833 28.0554C115.833 27.4541 116.071 26.8775 116.494 26.4523C116.917 26.0272 117.491 25.7883 118.09 25.7883H132.751C133.35 25.7883 133.924 26.0272 134.347 26.4523C134.77 26.8775 135.008 27.4541 135.008 28.0554C135.008 28.6566 134.77 29.2333 134.347 29.6584C133.924 30.0836 133.35 30.3224 132.751 30.3224Z" fill="black"/>
<path d="M262.782 30.3224H248.121C247.523 30.3224 246.949 30.0836 246.525 29.6584C246.102 29.2333 245.864 28.6566 245.864 28.0554C245.864 27.4541 246.102 26.8775 246.525 26.4523C246.949 26.0272 247.523 25.7883 248.121 25.7883H262.782C263.381 25.7883 263.955 26.0272 264.378 26.4523C264.801 26.8775 265.039 27.4541 265.039 28.0554C265.039 28.6566 264.801 29.2333 264.378 29.6584C263.955 30.0836 263.381 30.3224 262.782 30.3224Z" fill="black"/>
<path d="M98.1648 25.7927H84.9298C84.3312 25.7927 83.7571 26.0316 83.3339 26.4567C82.9106 26.8819 82.6729 27.4585 82.6729 28.0598C82.6729 28.661 82.9106 29.2377 83.3339 29.6628C83.7571 30.088 84.3312 30.3268 84.9298 30.3268H89.3325V48.9988C89.3325 49.5835 89.5638 50.1443 89.9754 50.5577C90.387 50.9711 90.9452 51.2034 91.5273 51.2034C92.1093 51.2034 92.6676 50.9711 93.0792 50.5577C93.4908 50.1443 93.722 49.5835 93.722 48.9988V30.3224H98.1648C98.7454 30.2965 99.2938 30.0466 99.6955 29.6246C100.097 29.2027 100.322 28.6414 100.322 28.0576C100.322 27.4737 100.097 26.9124 99.6955 26.4905C99.2938 26.0686 98.7454 25.8186 98.1648 25.7927Z" fill="black"/>
<path d="M208.958 51.2613H200.934C200.642 51.2578 200.353 51.1964 200.084 51.0804C199.815 50.9645 199.572 50.7964 199.368 50.5857C199.164 50.3751 199.004 50.1261 198.896 49.853C198.788 49.5799 198.735 49.288 198.74 48.9943V28.0552C198.726 27.7577 198.773 27.4605 198.877 27.1816C198.981 26.9027 199.141 26.6479 199.346 26.4326C199.551 26.2173 199.797 26.046 200.069 25.9289C200.342 25.8118 200.636 25.7515 200.932 25.7515C201.229 25.7515 201.522 25.8118 201.795 25.9289C202.067 26.046 202.314 26.2173 202.518 26.4326C202.723 26.6479 202.883 26.9027 202.987 27.1816C203.091 27.4605 203.138 27.7577 203.125 28.0552V46.7272H208.958C209.556 46.7272 210.131 46.966 210.554 47.3912C210.977 47.8164 211.215 48.393 211.215 48.9943C211.215 49.5955 210.977 50.1722 210.554 50.5973C210.131 51.0225 209.556 51.2613 208.958 51.2613Z" fill="black"/>
<path d="M274.728 51.2615C274.436 51.258 274.147 51.1965 273.878 51.0806C273.609 50.9647 273.366 50.7965 273.162 50.5859C272.958 50.3753 272.798 50.1262 272.69 49.8531C272.582 49.58 272.529 49.2882 272.533 48.9944V36.3516C272.533 30.55 277.118 25.7883 282.752 25.7883C283.35 25.7883 283.924 26.0272 284.348 26.4523C284.771 26.8775 285.009 27.4541 285.009 28.0554C285.009 28.6566 284.771 29.2333 284.348 29.6584C283.924 30.0836 283.35 30.3224 282.752 30.3224C281.183 30.3471 279.688 30.9957 278.595 32.1259C277.501 33.256 276.898 34.7757 276.918 36.3516V48.9989C276.923 49.2919 276.869 49.5829 276.761 49.8552C276.654 50.1275 276.493 50.3758 276.29 50.5859C276.087 50.796 275.844 50.9638 275.576 51.0797C275.308 51.1957 275.02 51.2574 274.728 51.2615Z" fill="black"/>
<path d="M151.451 51.2614H151.429C151.004 51.2551 150.591 51.1252 150.238 50.8876C149.886 50.65 149.609 50.3148 149.443 49.9226L140.557 28.9835C140.318 28.4319 140.304 27.808 140.518 27.2462C140.733 26.6844 141.158 26.2297 141.703 25.9801C141.967 25.864 142.251 25.8017 142.539 25.7968C142.827 25.7919 143.113 25.8446 143.381 25.9517C143.648 26.0588 143.892 26.2183 144.097 26.4208C144.303 26.6234 144.466 26.865 144.578 27.1315L151.504 43.4561L158.808 27.1047C158.923 26.8367 159.091 26.5946 159.301 26.393C159.512 26.1914 159.76 26.0342 160.032 25.931C160.304 25.8277 160.594 25.7805 160.884 25.792C161.174 25.8035 161.46 25.8735 161.723 25.998C162.255 26.2612 162.665 26.7224 162.865 27.2839C163.065 27.8454 163.039 28.463 162.793 29.0058L153.441 49.9449C153.272 50.3343 152.994 50.6659 152.64 50.8996C152.287 51.1333 151.874 51.2589 151.451 51.2614Z" fill="black"/>
<path d="M262.804 51.2615H253.598C251.56 51.1926 249.628 50.3307 248.21 48.8577C246.792 47.3847 245.999 45.4159 245.999 43.3669C245.999 41.318 246.792 39.3492 248.21 37.8762C249.628 36.4032 251.56 35.5413 253.598 35.4724H262.804C263.402 35.4724 263.976 35.7113 264.4 36.1364C264.823 36.5616 265.061 37.1382 265.061 37.7395C265.061 38.3407 264.823 38.9174 264.4 39.3425C263.976 39.7677 263.402 40.0065 262.804 40.0065H253.598C252.711 40.0065 251.86 40.3606 251.233 40.9908C250.605 41.621 250.253 42.4757 250.253 43.3669C250.253 44.2582 250.605 45.1129 251.233 45.7431C251.86 46.3733 252.711 46.7274 253.598 46.7274H262.804C263.402 46.7274 263.976 46.9662 264.4 47.3914C264.823 47.8165 265.061 48.3932 265.061 48.9944C265.061 49.5957 264.823 50.1723 264.4 50.5975C263.976 51.0226 263.402 51.2615 262.804 51.2615Z" fill="black"/>
<path d="M303.776 36.3873H300.222C299.386 36.3873 298.585 36.0539 297.994 35.4605C297.404 34.8672 297.072 34.0624 297.072 33.2232C297.072 32.384 297.404 31.5793 297.994 30.9859C298.585 30.3925 299.386 30.0591 300.222 30.0591H308.894C309.441 30.034 309.957 29.7981 310.335 29.4004C310.714 29.0026 310.925 28.4738 310.925 27.9237C310.925 27.3737 310.714 26.8448 310.335 26.4471C309.957 26.0494 309.441 25.8135 308.894 25.7883H300.235C298.316 25.8551 296.498 26.6677 295.165 28.0547C293.831 29.4417 293.085 31.2948 293.085 33.2232C293.085 35.1516 293.831 37.0047 295.165 38.3917C296.498 39.7787 298.316 40.5913 300.235 40.6581H303.789C304.605 40.6888 305.377 41.0359 305.943 41.6263C306.509 42.2168 306.825 43.0046 306.825 43.8244C306.825 44.6441 306.509 45.432 305.943 46.0224C305.377 46.6129 304.605 46.9599 303.789 46.9907H295.108C294.561 47.0158 294.045 47.2518 293.666 47.6495C293.288 48.0472 293.077 48.5761 293.077 49.1261C293.077 49.6761 293.288 50.205 293.666 50.6027C294.045 51.0004 294.561 51.2364 295.108 51.2615H303.776C305.708 51.2139 307.545 50.4095 308.895 49.02C310.245 47.6304 311.001 45.7659 311.001 43.8244C311.001 41.8829 310.245 40.0183 308.895 38.6288C307.545 37.2392 305.708 36.4348 303.776 36.3873Z" fill="black"/>
<path d="M228.31 51.2614H228.288C227.864 51.2551 227.45 51.1252 227.098 50.8876C226.745 50.65 226.469 50.3148 226.302 49.9226L217.417 28.9835C217.177 28.4319 217.163 27.808 217.378 27.2462C217.592 26.6844 218.018 26.2297 218.563 25.9801C218.827 25.864 219.111 25.8017 219.399 25.7968C219.686 25.7919 219.972 25.8446 220.24 25.9517C220.507 26.0588 220.751 26.2183 220.957 26.4208C221.162 26.6234 221.326 26.865 221.437 27.1315L228.359 43.4561L235.668 27.1047C235.783 26.8367 235.95 26.5946 236.161 26.393C236.371 26.1914 236.619 26.0342 236.891 25.931C237.163 25.8277 237.453 25.7805 237.743 25.792C238.034 25.8035 238.319 25.8735 238.582 25.998C239.115 26.2612 239.524 26.7224 239.724 27.2839C239.924 27.8454 239.898 28.463 239.653 29.0058L230.301 49.9449C230.131 50.3339 229.853 50.6652 229.499 50.8989C229.146 51.1325 228.733 51.2584 228.31 51.2614Z" fill="black"/>
<path d="M180.16 51.2614C173.363 51.2614 167.836 45.5447 167.836 38.5248C167.836 31.505 173.363 25.7927 180.16 25.7927C186.958 25.7927 192.48 31.505 192.48 38.5293C192.48 45.5536 186.953 51.2614 180.16 51.2614ZM180.16 30.492C178.57 30.4467 177.002 30.879 175.657 31.7337C174.313 32.5884 173.253 33.8266 172.612 35.2898C171.972 36.7531 171.781 38.3749 172.064 39.9478C172.346 41.5207 173.089 42.9732 174.198 44.1195C175.307 45.2658 176.731 46.0538 178.288 46.3826C179.845 46.7115 181.465 46.5663 182.939 45.9655C184.414 45.3648 185.676 44.3359 186.565 43.0104C187.455 41.6849 187.93 40.1232 187.931 38.5248C187.958 36.4254 187.155 34.4007 185.699 32.8949C184.242 31.389 182.25 30.5249 180.16 30.492Z" fill="black"/>
<path d="M104.814 41.3586C106.328 41.3586 107.556 40.0898 107.556 38.5247C107.556 36.9597 106.328 35.6909 104.814 35.6909C103.301 35.6909 102.073 36.9597 102.073 38.5247C102.073 40.0898 103.301 41.3586 104.814 41.3586Z" fill="black"/>
</svg>
