<svg width="104" height="138" viewBox="0 0 104 138" fill="none" xmlns="http://www.w3.org/2000/svg">
<path d="M31.755 137.662C36.6981 137.662 40.7053 135.324 40.7053 132.439C40.7053 129.555 36.6981 127.217 31.755 127.217C26.8119 127.217 22.8047 129.555 22.8047 132.439C22.8047 135.324 26.8119 137.662 31.755 137.662Z" fill="#0090BB"/>
<path d="M84.4288 117.007C87.4086 114.042 88.6037 110.423 87.0981 108.924C85.5925 107.426 81.9563 108.615 78.9765 111.581C75.9967 114.547 74.8016 118.165 76.3072 119.664C77.8128 121.162 81.449 119.973 84.4288 117.007Z" fill="#0090BB"/>
<path d="M87.5348 29.9141C89.053 28.4032 87.8452 24.7514 84.8371 21.7577C81.829 18.764 78.1597 17.562 76.6415 19.0729C75.1233 20.5839 76.3311 24.2356 79.3392 27.2293C82.3473 30.223 86.0166 31.4251 87.5348 29.9141Z" fill="#0090BB"/>
<path d="M32.1572 11.02C37.099 10.6416 40.9263 8.02127 40.7057 5.16739C40.485 2.31351 36.3 0.306771 31.3581 0.685206C26.4163 1.06364 22.589 3.68395 22.8097 6.53783C23.0303 9.39171 27.2154 11.3984 32.1572 11.02Z" fill="#0090BB"/>
<path d="M77.1669 28.7217C73.6737 24.2359 67.9832 22.8101 64.4578 25.5176C64.3129 25.6297 64.1841 25.7419 64.0473 25.862C64.0473 25.862 34.1861 52.0478 2.27254 85.7792C2.051 85.9891 1.8414 86.211 1.64473 86.4441C0.52239 87.8137 -0.060499 89.5431 0.00497261 91.3092C0.0704442 93.0753 0.779797 94.7572 2.00049 96.0408C3.22118 97.3243 4.86969 98.1216 6.638 98.2837C8.40631 98.4458 10.1734 97.9616 11.6092 96.9216C11.868 96.7339 12.1128 96.5277 12.3416 96.3048L26.5961 84.2893C27.0212 83.9298 27.5697 83.7481 28.1265 83.7825C28.6832 83.8168 29.205 84.0645 29.5822 84.4735C30.2181 85.1464 33.011 88.1182 36.4398 91.3865C42.8329 97.4233 49.6633 102.984 56.8758 108.024C59.9665 110.171 62.5824 111.829 64.3371 112.902C65.68 113.91 67.3156 114.455 68.9973 114.456C70.0805 114.431 71.148 114.194 72.139 113.758C73.1299 113.322 74.0247 112.696 74.7723 111.916C75.5199 111.135 76.1055 110.216 76.4957 109.21C76.8858 108.204 77.0729 107.131 77.0462 106.053C77.0537 104.715 76.7443 103.394 76.143 102.197C75.5417 101 74.6654 99.9613 73.5852 99.1645C71.6534 97.5624 69.118 95.4717 66.2366 92.8764C60.9082 88.0702 57.1897 84.1531 56.2319 83.1438C54.437 81.2374 51.0645 77.5847 47.1367 72.6663C46.4178 71.7649 46.0796 70.6203 46.1938 69.4751C46.3079 68.3298 46.8655 67.2737 47.7484 66.5304L76.7242 42.123C76.8691 42.0268 77.022 41.9227 77.1588 41.8186C80.6279 39.039 80.652 33.1995 77.1669 28.7217Z" fill="#0090BB"/>
<path d="M103.993 70.3274C103.993 66.194 102.118 62.8457 99.8 62.8457C99.417 62.8594 99.0405 62.9486 98.6923 63.1081C98.3442 63.2676 98.0313 63.4942 97.7717 63.7749L87.437 76.0948C87.1835 76.401 86.8615 76.6438 86.4966 76.8038C86.1318 76.9638 85.7344 77.0364 85.3363 77.016C84.8697 77.0345 84.4077 76.918 84.0063 76.6806C83.6049 76.4432 83.2812 76.095 83.0746 75.6783C82.9091 75.288 82.8473 74.8619 82.8952 74.4411C82.9432 74.0202 83.0992 73.6187 83.3482 73.2752L93.3288 58.9127C94.6205 57.026 95.2925 54.7871 95.2524 52.5044C95.2524 47.4178 92.2019 43.3005 88.4351 43.3005C87.1019 43.321 85.82 43.8154 84.8212 44.6943C84.6002 44.8821 84.3905 45.0827 84.1934 45.2951L65.7615 62.8377C63.8444 64.3939 62.5539 66.5848 62.126 69.0098C61.6981 71.4349 62.1613 73.9322 63.431 76.0454C64.7007 78.1585 66.6921 79.7464 69.0412 80.5188C71.3903 81.2912 73.9403 81.1966 76.225 80.2522C76.7687 80.0212 77.3737 79.9745 77.9467 80.1193C78.5197 80.264 79.029 80.5922 79.3963 81.0532C79.8289 81.5975 80.1937 82.1919 80.4828 82.8235C81.0398 84.1064 81.2158 85.5213 80.9899 86.9007C80.4989 90.2731 81.5614 93.309 83.9036 94.2943C86.3987 95.3837 89.5378 93.9178 91.7673 90.9219L102.376 76.263C103.503 74.4917 104.067 72.4229 103.993 70.3274Z" fill="#0090BB"/>
<path d="M35.1762 36.0431C40.1059 36.0431 44.1023 32.0659 44.1023 27.1597C44.1023 22.2535 40.1059 18.2762 35.1762 18.2762C30.2464 18.2762 26.25 22.2535 26.25 27.1597C26.25 32.0659 30.2464 36.0431 35.1762 36.0431Z" fill="#243453"/>
<path d="M15.4243 56.7579C22.1011 56.7579 27.5136 51.3712 27.5136 44.7264C27.5136 38.0816 22.1011 32.6949 15.4243 32.6949C8.74754 32.6949 3.33496 38.0816 3.33496 44.7264C3.33496 51.3712 8.74754 56.7579 15.4243 56.7579Z" fill="#243453"/>
<path d="M97.9552 46.3677C99.0057 45.9097 98.9982 43.5871 97.9386 41.1802C96.8789 38.7732 95.1683 37.1933 94.1179 37.6513C93.0674 38.1094 93.0748 40.4319 94.1345 42.8389C95.1941 45.2458 96.9047 46.8257 97.9552 46.3677Z" fill="#243453"/>
<path d="M64.983 130.921C67.5728 129.616 69.0733 127.381 68.3345 125.929C67.5956 124.476 64.8972 124.356 62.3074 125.661C59.7176 126.966 58.2171 129.201 58.956 130.654C59.6948 132.106 62.3932 132.226 64.983 130.921Z" fill="#243453"/>
<path d="M97.38 98.5072C98.2999 96.4305 98.1916 94.3723 97.1381 93.9101C96.0846 93.4479 94.4849 94.7567 93.565 96.8334C92.6451 98.91 92.7534 100.968 93.8069 101.43C94.8604 101.893 96.4602 100.584 97.38 98.5072Z" fill="#243453"/>
<path d="M64.5386 7.15001C62.0596 6.06061 59.5967 5.83632 58.0996 6.42107C56.1196 7.15802 54.0752 7.81487 52.0147 8.69601C50.1393 9.49704 50.1071 9.34484 48.7951 9.91358C48.5805 9.99902 48.3712 10.0951 48.1673 10.2019C47.0319 10.7143 46.0622 11.5313 45.367 12.5613C44.6718 13.5913 44.2786 14.7936 44.2314 16.0335C44.2314 19.8223 47.9259 22.8903 52.4815 22.8903C54.6126 22.917 56.6858 22.1999 58.341 20.8637C60.3372 19.4859 60.4176 19.2616 62.8725 17.7236C64.8847 16.482 66.5187 15.2725 68.4423 14.1671C68.9086 13.9593 69.2853 13.5929 69.5048 13.1337C70.2694 11.3715 68.056 8.688 64.5386 7.15001Z" fill="#243453"/>
<path d="M56.8279 116.923C54.0188 114.52 51.3949 112.326 48.4329 109.458C45.2134 106.35 42.2353 103.282 39.4907 100.302C38.4011 99.1423 37.0801 98.2218 35.6122 97.5997C34.1444 96.9776 32.5622 96.6675 30.967 96.6894C24.9143 96.7054 20.085 100.951 20.085 106.182C20.1139 107.652 20.5011 109.094 21.2133 110.384C21.9255 111.673 22.9414 112.771 24.1738 113.583L24.2462 113.631C24.4152 113.743 24.5762 113.855 24.7533 113.96C28.5121 116.363 32.6089 118.854 37.0358 121.273C40.368 123.083 43.5875 124.723 46.6944 126.191H46.7749C48.216 126.972 49.8349 127.369 51.4754 127.345C55.8298 127.345 59.3632 124.661 59.3632 121.337C59.3318 120.452 59.0846 119.588 58.6429 118.819C58.2012 118.05 57.5783 117.399 56.8279 116.923Z" fill="#243453"/>
</svg>
