<svg width="24" height="24" viewBox="0 0 24 24" fill="none" xmlns="http://www.w3.org/2000/svg">
<g clip-path="url(#clip0_8_3054)">
<path d="M10.4587 23.9765L8.17121 23.1468C7.93121 23.0625 7.79621 22.7484 7.86371 22.4484L12.9825 0.407779C13.05 0.107779 13.3012 -0.0609711 13.5412 0.0234039L15.8287 0.853092C16.0687 0.937467 16.2037 1.25153 16.1362 1.55153L11.0175 23.5922C10.9462 23.8922 10.6987 24.0656 10.4587 23.9765ZM6.18371 18.7172L7.81496 16.5422C7.98746 16.3125 7.97621 15.9468 7.78496 15.7359L4.38746 12L7.78496 8.26403C7.97621 8.05309 7.99121 7.68747 7.81496 7.45778L6.18371 5.28278C6.01496 5.05778 5.72996 5.04372 5.54621 5.25934L0.142461 11.5875C-0.0487891 11.8078 -0.0487891 12.1875 0.142461 12.4078L5.54621 18.7406C5.72996 18.9562 6.01496 18.9468 6.18371 18.7172ZM18.4537 18.7453L23.8575 12.4125C24.0487 12.1922 24.0487 11.8125 23.8575 11.5922L18.4537 5.25465C18.2737 5.04372 17.9887 5.05309 17.8162 5.27809L16.185 7.45309C16.0125 7.68278 16.0237 8.0484 16.215 8.25934L19.6125 12L16.215 15.7359C16.0237 15.9468 16.0087 16.3125 16.185 16.5422L17.8162 18.7172C17.985 18.9468 18.27 18.9562 18.4537 18.7453Z" fill="white"/>
</g>
<defs>
<clipPath id="clip0_8_3054">
<rect width="24" height="24" fill="white"/>
</clipPath>
</defs>
</svg>
