<svg width="22" height="19" viewBox="0 0 22 19" fill="none" xmlns="http://www.w3.org/2000/svg">
<path d="M19.8 5.03464L11 10.5815L2.2 5.03464V2.8159L11 8.36274L19.8 2.8159M19.8 0.597168H2.2C0.979 0.597168 0 1.5845 0 2.8159V16.1283C0 16.7168 0.231785 17.2811 0.644365 17.6972C1.05694 18.1133 1.61652 18.347 2.2 18.347H19.8C20.3835 18.347 20.9431 18.1133 21.3556 17.6972C21.7682 17.2811 22 16.7168 22 16.1283V2.8159C22 2.22746 21.7682 1.66311 21.3556 1.24702C20.9431 0.830927 20.3835 0.597168 19.8 0.597168Z" fill="#0091BC"/>
</svg>
