<svg width="24" height="24" viewBox="0 0 24 24" fill="none" xmlns="http://www.w3.org/2000/svg">
<path d="M12.0006 14.4C12.6371 14.4 13.2476 14.1471 13.6976 13.697C14.1477 13.2469 14.4006 12.6365 14.4006 12C14.4006 11.3635 14.1477 10.753 13.6976 10.3029C13.2476 9.85283 12.6371 9.59998 12.0006 9.59998C11.3641 9.59998 10.7536 9.85283 10.3035 10.3029C9.85344 10.753 9.60059 11.3635 9.60059 12C9.60059 12.6365 9.85344 13.2469 10.3035 13.697C10.7536 14.1471 11.3641 14.4 12.0006 14.4Z" fill="#F1F5F8"/>
<path fill-rule="evenodd" clip-rule="evenodd" d="M0.549805 12.0001C2.0786 7.1317 6.6266 3.6001 12.0002 3.6001C17.3738 3.6001 21.9218 7.1317 23.4506 12.0001C21.9218 16.8685 17.3738 20.4001 12.0002 20.4001C6.6266 20.4001 2.0786 16.8685 0.549805 12.0001ZM16.8002 12.0001C16.8002 13.2731 16.2945 14.494 15.3943 15.3942C14.4941 16.2944 13.2732 16.8001 12.0002 16.8001C10.7272 16.8001 9.50627 16.2944 8.60609 15.3942C7.70592 14.494 7.2002 13.2731 7.2002 12.0001C7.2002 10.7271 7.70592 9.50616 8.60609 8.60599C9.50627 7.70581 10.7272 7.2001 12.0002 7.2001C13.2732 7.2001 14.4941 7.70581 15.3943 8.60599C16.2945 9.50616 16.8002 10.7271 16.8002 12.0001Z" fill="#F1F5F8"/>
</svg>
