<svg width="36" height="36" viewBox="0 0 36 36" fill="none" xmlns="http://www.w3.org/2000/svg">
<path id="Vector" d="M33.1065 0H2.8935C1.296 0 0 1.296 0 2.8935V33.1065C0 34.704 1.296 36 2.8935 36H33.1065C34.704 36 36 34.704 36 33.1065V2.8935C36 1.296 34.704 0 33.1065 0ZM33.1065 33.12C12.9555 33.1155 2.88 33.111 2.88 33.1065C2.8845 12.9555 2.889 2.88 2.8935 2.88C23.0445 2.8845 33.12 2.889 33.12 2.8935C33.1155 23.0445 33.111 33.12 33.1065 33.12ZM5.337 13.4955H10.6785V30.6765H5.337V13.4955ZM8.01 11.1465C9.7155 11.1465 11.106 9.7605 11.106 8.0505C11.106 7.64393 11.0259 7.24134 10.8703 6.86571C10.7147 6.49009 10.4867 6.14879 10.1992 5.8613C9.91171 5.57381 9.57041 5.34576 9.19479 5.19017C8.81916 5.03458 8.41657 4.9545 8.01 4.9545C7.60343 4.9545 7.20084 5.03458 6.82521 5.19017C6.44959 5.34576 6.10829 5.57381 5.8208 5.8613C5.53331 6.14879 5.30526 6.49009 5.14967 6.86571C4.99408 7.24134 4.914 7.64393 4.914 8.0505C4.9095 9.7605 6.2955 11.1465 8.01 11.1465ZM19.3635 22.176C19.3635 19.935 19.791 17.766 22.5675 17.766C25.3035 17.766 25.344 20.3265 25.344 22.32V30.6765H30.681V21.2535C30.681 16.6275 29.682 13.068 24.2775 13.068C21.681 13.068 19.9395 14.4945 19.224 15.8445H19.152V13.4955H14.0265V30.6765H19.3635V22.176Z" fill="white"/>
</svg>
