<svg width="219" height="55" viewBox="0 0 219 55" fill="none" xmlns="http://www.w3.org/2000/svg">
<path d="M12.3432 54.2545C14.2646 54.2545 15.8222 53.333 15.8222 52.1962C15.8222 51.0594 14.2646 50.1378 12.3432 50.1378C10.4218 50.1378 8.86426 51.0594 8.86426 52.1962C8.86426 53.333 10.4218 54.2545 12.3432 54.2545Z" fill="white"/>
<path d="M32.8171 46.1141C33.9754 44.9454 34.4399 43.5192 33.8546 42.9286C33.2694 42.3381 31.856 42.8068 30.6978 43.9756C29.5395 45.1443 29.075 46.5705 29.6602 47.1611C30.2455 47.7516 31.6588 47.2829 32.8171 46.1141Z" fill="white"/>
<path d="M34.0244 11.7895C34.6145 11.1941 34.1451 9.75486 32.9758 8.575C31.8066 7.39514 30.3803 6.92141 29.7902 7.51688C29.2001 8.11236 29.6695 9.55156 30.8388 10.7314C32.008 11.9113 33.4343 12.385 34.0244 11.7895Z" fill="white"/>
<path d="M12.4996 4.34319C14.4205 4.19404 15.9081 3.16135 15.8224 2.0366C15.7366 0.911846 14.1099 0.120962 12.189 0.270108C10.2681 0.419254 8.78046 1.45195 8.86623 2.5767C8.952 3.70145 10.5787 4.49234 12.4996 4.34319Z" fill="white"/>
<path d="M29.9947 11.3196C28.6369 9.55173 26.425 8.98979 25.0547 10.0568C24.9984 10.101 24.9483 10.1452 24.8951 10.1926C24.8951 10.1926 13.2881 20.5127 0.883332 33.8067C0.797221 33.8894 0.715751 33.9769 0.639304 34.0688C0.203052 34.6085 -0.0235159 35.2901 0.00193285 35.9862C0.0273816 36.6822 0.303106 37.3451 0.777588 37.8509C1.25207 38.3568 1.89284 38.671 2.58018 38.7349C3.26752 38.7988 3.9544 38.608 4.51247 38.1981C4.61307 38.1241 4.70822 38.0429 4.79717 37.955L10.3379 33.2195C10.5031 33.0779 10.7163 33.0063 10.9327 33.0198C11.1491 33.0333 11.352 33.131 11.4986 33.2922C11.7457 33.5573 12.8313 34.7286 14.1641 36.0166C16.6491 38.3958 19.3041 40.5874 22.1076 42.5737C23.3089 43.4197 24.3257 44.0732 25.0077 44.4962C25.5297 44.8933 26.1655 45.1082 26.8192 45.1087C27.2402 45.0989 27.6552 45.0054 28.0403 44.8336C28.4255 44.6618 28.7733 44.415 29.0639 44.1074C29.3545 43.7998 29.5821 43.4375 29.7338 43.041C29.8854 42.6446 29.9582 42.2219 29.9478 41.797C29.9507 41.2697 29.8304 40.749 29.5967 40.2773C29.363 39.8056 29.0224 39.3961 28.6025 39.082C27.8516 38.4506 26.8661 37.6267 25.7461 36.6038C23.675 34.7096 22.2296 33.1659 21.8573 32.7681C21.1596 32.0167 19.8487 30.5772 18.322 28.6388C18.0425 28.2835 17.9111 27.8324 17.9555 27.3811C17.9998 26.9297 18.2166 26.5135 18.5598 26.2205L29.8226 16.6012C29.8789 16.5634 29.9384 16.5223 29.9916 16.4813C31.34 15.3858 31.3494 13.0844 29.9947 11.3196Z" fill="white"/>
<path d="M40.4221 27.7169C40.4221 26.0879 39.6931 24.7683 38.7921 24.7683C38.6432 24.7737 38.4969 24.8089 38.3616 24.8717C38.2262 24.9346 38.1046 25.0239 38.0037 25.1345L33.9866 29.9899C33.8881 30.1106 33.7629 30.2063 33.6211 30.2694C33.4793 30.3324 33.3248 30.3611 33.1701 30.353C32.9887 30.3603 32.8091 30.3144 32.6531 30.2208C32.4971 30.1273 32.3713 29.99 32.2909 29.8258C32.2266 29.672 32.2026 29.5041 32.2212 29.3382C32.2399 29.1723 32.3005 29.0141 32.3973 28.8787L36.2767 23.2182C36.7788 22.4747 37.0401 21.5923 37.0245 20.6927C37.0245 18.688 35.8387 17.0653 34.3746 17.0653C33.8564 17.0734 33.3581 17.2682 32.9698 17.6146C32.8839 17.6886 32.8025 17.7677 32.7258 17.8514L25.5614 24.7652C24.8162 25.3785 24.3146 26.2419 24.1483 27.1977C23.9819 28.1534 24.162 29.1376 24.6555 29.9705C25.149 30.8033 25.9231 31.4291 26.8362 31.7335C27.7493 32.0379 28.7404 32.0006 29.6285 31.6284C29.8399 31.5374 30.075 31.519 30.2977 31.576C30.5205 31.6331 30.7184 31.7624 30.8612 31.9441C31.0293 32.1586 31.1712 32.3929 31.2835 32.6418C31.5 33.1474 31.5684 33.7051 31.4806 34.2487C31.2898 35.5778 31.7028 36.7743 32.6132 37.1626C33.583 37.5919 34.8032 37.0142 35.6698 35.8335L39.7933 30.0562C40.2315 29.3581 40.4507 28.5428 40.4221 27.7169Z" fill="white"/>
<path d="M13.6727 14.2052C15.5889 14.2052 17.1423 12.6377 17.1423 10.7041C17.1423 8.77049 15.5889 7.203 13.6727 7.203C11.7565 7.203 10.2031 8.77049 10.2031 10.7041C10.2031 12.6377 11.7565 14.2052 13.6727 14.2052Z" fill="white"/>
<path d="M5.99501 22.369C8.59026 22.369 10.6941 20.2461 10.6941 17.6273C10.6941 15.0085 8.59026 12.8855 5.99501 12.8855C3.39976 12.8855 1.2959 15.0085 1.2959 17.6273C1.2959 20.2461 3.39976 22.369 5.99501 22.369Z" fill="white"/>
<path d="M38.0756 18.2741C38.4839 18.0936 38.481 17.1783 38.0692 16.2297C37.6573 15.281 36.9924 14.6584 36.5841 14.8389C36.1757 15.0194 36.1786 15.9348 36.5905 16.8834C37.0024 17.832 37.6673 18.4547 38.0756 18.2741Z" fill="white"/>
<path d="M25.2592 51.5978C26.2658 51.0835 26.8491 50.2026 26.5619 49.6301C26.2747 49.0577 25.2258 49.0105 24.2192 49.5247C23.2125 50.0389 22.6293 50.9199 22.9165 51.4923C23.2037 52.0648 24.2525 52.112 25.2592 51.5978Z" fill="white"/>
<path d="M37.852 38.823C38.2096 38.0046 38.1675 37.1934 37.758 37.0113C37.3485 36.8291 36.7267 37.3449 36.3691 38.1633C36.0115 38.9818 36.0536 39.7929 36.4631 39.9751C36.8726 40.1573 37.4944 39.6414 37.852 38.823Z" fill="white"/>
<path d="M25.0858 2.81793C24.1222 2.38858 23.1648 2.30018 22.5829 2.53064C21.8133 2.82108 21.0186 3.07995 20.2177 3.42722C19.4888 3.74292 19.4762 3.68294 18.9663 3.90708C18.8829 3.94076 18.8015 3.97864 18.7223 4.02073C18.2809 4.22267 17.904 4.54464 17.6338 4.95058C17.3636 5.35651 17.2107 5.83035 17.1924 6.31901C17.1924 7.81225 18.6284 9.02138 20.3992 9.02138C21.2275 9.03189 22.0334 8.74929 22.6768 8.22266C23.4527 7.67966 23.4839 7.59127 24.4382 6.98513C25.2203 6.4958 25.8554 6.01909 26.6031 5.58343C26.7844 5.50154 26.9308 5.35715 27.0161 5.17618C27.3133 4.48165 26.453 3.42406 25.0858 2.81793Z" fill="white"/>
<path d="M22.0886 46.081C20.9967 45.1339 19.9768 44.2689 18.8255 43.1387C17.574 41.9138 16.4165 40.7047 15.3496 39.5303C14.9261 39.0732 14.4126 38.7105 13.8421 38.4653C13.2715 38.2201 12.6565 38.0979 12.0365 38.1065C9.68378 38.1128 7.80664 39.786 7.80664 41.8475C7.8179 42.4272 7.9684 42.9955 8.24522 43.5036C8.52205 44.0117 8.91692 44.4444 9.39595 44.7646L9.42411 44.7835C9.48981 44.8277 9.55238 44.8719 9.62121 44.9129C11.0823 45.86 12.6747 46.8418 14.3954 47.7953C15.6906 48.5087 16.9421 49.1549 18.1497 49.7336H18.181C18.7411 50.0412 19.3704 50.1978 20.0081 50.1882C21.7006 50.1882 23.0741 49.1306 23.0741 47.8205C23.0618 47.4717 22.9657 47.1311 22.7941 46.828C22.6224 46.525 22.3803 46.2686 22.0886 46.081Z" fill="white"/>
<path d="M93.4833 36.2629H87.0009C85.5653 36.2142 84.2046 35.6044 83.2061 34.5624C82.2076 33.5204 81.6494 32.1277 81.6494 30.6782C81.6494 29.2287 82.2076 27.836 83.2061 26.794C84.2046 25.7519 85.5653 25.1422 87.0009 25.0935H93.4833C93.9048 25.0935 94.309 25.2625 94.6071 25.5632C94.9051 25.864 95.0726 26.2719 95.0726 26.6972C95.0726 27.1226 94.9051 27.5305 94.6071 27.8313C94.309 28.132 93.9048 28.301 93.4833 28.301H87.0009C86.3761 28.301 85.7769 28.5514 85.3351 28.9973C84.8933 29.4431 84.6451 30.0477 84.6451 30.6782C84.6451 31.3087 84.8933 31.9133 85.3351 32.3591C85.7769 32.8049 86.3761 33.0554 87.0009 33.0554H93.4833C93.9048 33.0554 94.309 33.2244 94.6071 33.5251C94.9051 33.8259 95.0726 34.2338 95.0726 34.6591C95.0726 35.0845 94.9051 35.4924 94.6071 35.7931C94.309 36.0939 93.9048 36.2629 93.4833 36.2629Z" fill="white"/>
<path d="M93.4829 21.4504H83.1587C82.7371 21.4504 82.3329 21.2814 82.0348 20.9807C81.7368 20.6799 81.5693 20.272 81.5693 19.8467C81.5693 19.4213 81.7368 19.0134 82.0348 18.7126C82.3329 18.4119 82.7371 18.2429 83.1587 18.2429H93.4829C93.9045 18.2429 94.3087 18.4119 94.6068 18.7126C94.9048 19.0134 95.0723 19.4213 95.0723 19.8467C95.0723 20.272 94.9048 20.6799 94.6068 20.9807C94.3087 21.2814 93.9045 21.4504 93.4829 21.4504Z" fill="white"/>
<path d="M185.049 21.4504H174.725C174.304 21.4504 173.899 21.2814 173.601 20.9807C173.303 20.6799 173.136 20.272 173.136 19.8467C173.136 19.4213 173.303 19.0134 173.601 18.7126C173.899 18.4119 174.304 18.2429 174.725 18.2429H185.049C185.471 18.2429 185.875 18.4119 186.173 18.7126C186.471 19.0134 186.639 19.4213 186.639 19.8467C186.639 20.272 186.471 20.6799 186.173 20.9807C185.875 21.2814 185.471 21.4504 185.049 21.4504Z" fill="white"/>
<path d="M69.1271 18.2461H59.8071C59.3856 18.2461 58.9813 18.4151 58.6833 18.7158C58.3852 19.0166 58.2178 19.4245 58.2178 19.8498C58.2178 20.2752 58.3852 20.6831 58.6833 20.9839C58.9813 21.2846 59.3856 21.4536 59.8071 21.4536H62.9075V34.6623C62.9075 35.076 63.0703 35.4726 63.3602 35.7651C63.65 36.0576 64.0431 36.2219 64.453 36.2219C64.8629 36.2219 65.256 36.0576 65.5459 35.7651C65.8357 35.4726 65.9985 35.076 65.9985 34.6623V21.4504H69.1271C69.536 21.4321 69.9221 21.2553 70.2051 20.9568C70.488 20.6584 70.6459 20.2613 70.6459 19.8483C70.6459 19.4352 70.488 19.0381 70.2051 18.7397C69.9221 18.4412 69.536 18.2644 69.1271 18.2461Z" fill="white"/>
<path d="M147.147 36.2629H141.497C141.291 36.2604 141.088 36.2169 140.899 36.1349C140.709 36.0529 140.538 35.934 140.394 35.7849C140.251 35.6359 140.138 35.4598 140.062 35.2666C139.986 35.0734 139.948 34.8669 139.952 34.6591V19.8466C139.942 19.6361 139.975 19.4259 140.049 19.2286C140.122 19.0313 140.234 18.8511 140.379 18.6988C140.523 18.5465 140.696 18.4253 140.888 18.3424C141.08 18.2596 141.287 18.2169 141.496 18.2169C141.705 18.2169 141.911 18.2596 142.103 18.3424C142.295 18.4253 142.469 18.5465 142.613 18.6988C142.757 18.8511 142.869 19.0313 142.943 19.2286C143.016 19.4259 143.049 19.6361 143.04 19.8466V33.0554H147.147C147.569 33.0554 147.973 33.2243 148.271 33.5251C148.569 33.8259 148.737 34.2338 148.737 34.6591C148.737 35.0845 148.569 35.4924 148.271 35.7931C147.973 36.0939 147.569 36.2629 147.147 36.2629Z" fill="white"/>
<path d="M193.463 36.2629C193.257 36.2604 193.053 36.217 192.864 36.1349C192.675 36.0529 192.503 35.934 192.36 35.785C192.216 35.636 192.103 35.4598 192.027 35.2666C191.951 35.0734 191.914 34.867 191.917 34.6592V25.7155C191.917 21.6114 195.146 18.2429 199.113 18.2429C199.534 18.2429 199.939 18.4119 200.237 18.7126C200.535 19.0134 200.702 19.4213 200.702 19.8467C200.702 20.272 200.535 20.6799 200.237 20.9807C199.939 21.2814 199.534 21.4504 199.113 21.4504C198.008 21.4679 196.955 21.9266 196.185 22.7262C195.415 23.5257 194.991 24.6007 195.005 25.7155V34.6623C195.008 34.8696 194.97 35.0755 194.894 35.2681C194.819 35.4607 194.706 35.6364 194.562 35.785C194.419 35.9336 194.248 36.0523 194.06 36.1343C193.871 36.2163 193.668 36.26 193.463 36.2629Z" fill="white"/>
<path d="M106.651 36.2629H106.635C106.336 36.2584 106.045 36.1666 105.797 35.9985C105.549 35.8304 105.354 35.5933 105.237 35.3158L98.9796 20.5033C98.8111 20.1131 98.8013 19.6717 98.9523 19.2743C99.1032 18.8769 99.4029 18.5552 99.7867 18.3787C99.9724 18.2965 100.172 18.2524 100.375 18.249C100.578 18.2455 100.779 18.2828 100.968 18.3586C101.156 18.4344 101.328 18.5472 101.472 18.6904C101.617 18.8337 101.732 19.0046 101.811 19.1932L106.688 30.7414L111.832 19.1742C111.913 18.9846 112.031 18.8134 112.179 18.6708C112.327 18.5281 112.502 18.417 112.693 18.3439C112.885 18.2709 113.089 18.2374 113.294 18.2456C113.498 18.2537 113.699 18.3033 113.884 18.3913C114.259 18.5775 114.548 18.9038 114.688 19.301C114.829 19.6982 114.811 20.1351 114.638 20.5191L108.052 35.3316C107.933 35.6071 107.737 35.8417 107.488 36.007C107.24 36.1723 106.949 36.2612 106.651 36.2629Z" fill="white"/>
<path d="M185.065 36.2629H178.583C177.147 36.2142 175.787 35.6044 174.788 34.5624C173.79 33.5204 173.231 32.1277 173.231 30.6782C173.231 29.2287 173.79 27.836 174.788 26.794C175.787 25.7519 177.147 25.1422 178.583 25.0935H185.065C185.487 25.0935 185.891 25.2625 186.189 25.5632C186.487 25.864 186.655 26.2719 186.655 26.6972C186.655 27.1226 186.487 27.5305 186.189 27.8313C185.891 28.132 185.487 28.301 185.065 28.301H178.583C177.958 28.301 177.359 28.5514 176.917 28.9973C176.475 29.4431 176.227 30.0477 176.227 30.6782C176.227 31.3087 176.475 31.9133 176.917 32.3591C177.359 32.8049 177.958 33.0554 178.583 33.0554H185.065C185.487 33.0554 185.891 33.2244 186.189 33.5251C186.487 33.8259 186.655 34.2338 186.655 34.6591C186.655 35.0845 186.487 35.4924 186.189 35.7931C185.891 36.0939 185.487 36.2629 185.065 36.2629Z" fill="white"/>
<path d="M213.917 25.7407H211.414C210.826 25.7407 210.261 25.5049 209.845 25.0851C209.429 24.6654 209.196 24.0961 209.196 23.5024C209.196 22.9088 209.429 22.3395 209.845 21.9197C210.261 21.5 210.826 21.2641 211.414 21.2641H217.521C217.906 21.2464 218.27 21.0795 218.536 20.7981C218.802 20.5168 218.951 20.1426 218.951 19.7535C218.951 19.3644 218.802 18.9903 218.536 18.709C218.27 18.4276 217.906 18.2607 217.521 18.2429H211.423C210.072 18.2902 208.792 18.865 207.853 19.8462C206.914 20.8274 206.389 22.1382 206.389 23.5024C206.389 24.8666 206.914 26.1775 207.853 27.1587C208.792 28.1399 210.072 28.7147 211.423 28.7619H213.926C214.5 28.7837 215.044 29.0292 215.443 29.4469C215.841 29.8646 216.064 30.4219 216.064 31.0018C216.064 31.5817 215.841 32.1391 215.443 32.5567C215.044 32.9744 214.5 33.2199 213.926 33.2417H207.813C207.428 33.2595 207.064 33.4264 206.798 33.7077C206.531 33.9891 206.383 34.3632 206.383 34.7523C206.383 35.1414 206.531 35.5155 206.798 35.7969C207.064 36.0782 207.428 36.2451 207.813 36.2629H213.917C215.277 36.2293 216.571 35.6602 217.522 34.6772C218.472 33.6943 219.004 32.3752 219.004 31.0018C219.004 29.6284 218.472 28.3094 217.522 27.3264C216.571 26.3434 215.277 25.7744 213.917 25.7407Z" fill="white"/>
<path d="M160.775 36.2629H160.759C160.46 36.2584 160.169 36.1666 159.921 35.9985C159.673 35.8304 159.478 35.5933 159.361 35.3158L153.104 20.5033C152.935 20.1131 152.925 19.6717 153.076 19.2743C153.227 18.8769 153.527 18.5552 153.911 18.3787C154.096 18.2965 154.296 18.2524 154.499 18.249C154.702 18.2455 154.903 18.2828 155.092 18.3586C155.28 18.4344 155.452 18.5472 155.596 18.6904C155.741 18.8337 155.856 19.0046 155.935 19.1932L160.809 30.7414L165.956 19.1742C166.037 18.9846 166.155 18.8134 166.303 18.6708C166.451 18.5281 166.626 18.417 166.818 18.3439C167.009 18.2709 167.213 18.2374 167.418 18.2456C167.622 18.2537 167.823 18.3033 168.008 18.3913C168.383 18.5775 168.672 18.9038 168.812 19.301C168.953 19.6982 168.935 20.1351 168.762 20.5191L162.176 35.3316C162.057 35.6068 161.861 35.8412 161.612 36.0065C161.363 36.1717 161.073 36.2608 160.775 36.2629Z" fill="white"/>
<path d="M126.868 36.2629C122.081 36.2629 118.189 32.2189 118.189 27.2529C118.189 22.287 122.081 18.2461 126.868 18.2461C131.655 18.2461 135.544 22.287 135.544 27.2561C135.544 32.2252 131.652 36.2629 126.868 36.2629ZM126.868 21.5704C125.748 21.5383 124.644 21.8442 123.697 22.4488C122.75 23.0534 122.004 23.9293 121.553 24.9644C121.102 25.9996 120.968 27.1468 121.167 28.2595C121.366 29.3722 121.889 30.3998 122.67 31.2107C123.451 32.0216 124.453 32.579 125.55 32.8116C126.646 33.0443 127.787 32.9415 128.825 32.5166C129.863 32.0916 130.753 31.3637 131.379 30.4261C132.005 29.4884 132.34 28.3836 132.34 27.2529C132.359 25.7677 131.794 24.3355 130.768 23.2702C129.742 22.205 128.34 21.5937 126.868 21.5704Z" fill="white"/>
<path d="M73.8102 29.2575C74.8763 29.2575 75.7405 28.36 75.7405 27.2528C75.7405 26.1457 74.8763 25.2482 73.8102 25.2482C72.7441 25.2482 71.8799 26.1457 71.8799 27.2528C71.8799 28.36 72.7441 29.2575 73.8102 29.2575Z" fill="white"/>
</svg>
