<svg width="26" height="18" viewBox="0 0 26 18" fill="none" xmlns="http://www.w3.org/2000/svg">
<path d="M0.0668151 2.20229C0.067367 1.77665 0.293559 1.36858 0.695689 1.06775C1.09782 0.766926 1.64299 0.597947 2.21141 0.597948H23.7886C24.0757 0.591246 24.3617 0.627805 24.6296 0.705455C24.8975 0.783104 25.1418 0.900261 25.3481 1.04997C25.5543 1.19968 25.7183 1.3789 25.8303 1.57698C25.9423 1.77506 26 1.98797 26 2.20307C26 2.41817 25.9423 2.63108 25.8303 2.82916C25.7183 3.02724 25.5543 3.20646 25.3481 3.35617C25.1418 3.50588 24.8975 3.62304 24.6296 3.70069C24.3617 3.77834 24.0757 3.8149 23.7886 3.8082H2.20933C1.64127 3.80737 1.09685 3.63781 0.695563 3.33674C0.294273 3.03566 0.0688963 2.62766 0.0688974 2.20229H0.0668151ZM25.9311 8.97983C25.9305 9.40547 25.7044 9.81354 25.3022 10.1144C24.9001 10.4152 24.3549 10.5842 23.7865 10.5842H2.21141C1.65447 10.5712 1.12615 10.3964 0.738328 10.0968C0.350504 9.79717 0.13363 9.3963 0.13363 8.97905C0.13363 8.5618 0.350504 8.16093 0.738328 7.86133C1.12615 7.56173 1.65447 7.38693 2.21141 7.37393H23.7907C24.3591 7.37434 24.904 7.54372 25.3058 7.84484C25.7075 8.14596 25.9311 8.55419 25.9311 8.97983ZM25.9311 15.7543C25.9311 16.1802 25.7052 16.5886 25.303 16.8898C24.9008 17.191 24.3553 17.3602 23.7865 17.3602H2.21141C1.9243 17.3669 1.63831 17.3303 1.37042 17.2526C1.10253 17.175 0.858209 17.0578 0.651948 16.9081C0.445687 16.7584 0.281694 16.5792 0.169701 16.3811C0.0577089 16.183 0 15.9701 0 15.755C0 15.5399 0.0577089 15.327 0.169701 15.1289C0.281694 14.9309 0.445687 14.7516 0.651948 14.6019C0.858209 14.4522 1.10253 14.3351 1.37042 14.2574C1.63831 14.1798 1.9243 14.1432 2.21141 14.1499H23.7907C24.3591 14.1503 24.904 14.3197 25.3058 14.6208C25.7075 14.9219 25.9332 15.3302 25.9332 15.7558L25.9311 15.7543Z" fill="#25221F"/>
</svg>
