<svg width="24" height="24" viewBox="0 0 24 24" fill="none" xmlns="http://www.w3.org/2000/svg">
<g clip-path="url(#clip0_8_3064)">
<path d="M1.48966 5.61409H22.5103C23.2966 5.61409 24 6.21058 24 6.87725V9.82462C24 10.5264 23.2966 11.0878 22.5103 11.0878H1.48966C0.662069 11.0878 0 10.5264 0 9.82462V6.87725C0 6.21058 0.662069 5.61409 1.48966 5.61409ZM22.1793 8.63164V8.07023C22.1793 7.85971 21.931 7.64918 21.6828 7.64918H19.0345C18.7448 7.64918 18.5379 7.85971 18.5379 8.07023V8.63164C18.5379 8.87725 18.7448 9.05269 19.0345 9.05269H21.6828C21.931 9.05269 22.1793 8.87725 22.1793 8.63164ZM1.48966 12.0702H22.5103C23.2966 12.0702 24 12.6316 24 13.3334V16.2808C24 16.9825 23.2966 17.5439 22.5103 17.5439H1.48966C0.662069 17.5439 0 16.9825 0 16.2808V13.3334C0 12.6316 0.662069 12.0702 1.48966 12.0702ZM22.1793 15.0878V14.5264C22.1793 14.3158 21.931 14.1053 21.6828 14.1053H19.0345C18.7448 14.1053 18.5379 14.3158 18.5379 14.5264V15.0878C18.5379 15.3334 18.7448 15.5088 19.0345 15.5088H21.6828C21.931 15.5088 22.1793 15.3334 22.1793 15.0878ZM1.48966 18.5264H22.5103C23.2966 18.5264 24 19.0878 24 19.7895V22.7369C24 23.4387 23.2966 24.0001 22.5103 24.0001H1.48966C0.662069 24.0001 0 23.4387 0 22.7369V19.7895C0 19.0878 0.662069 18.5264 1.48966 18.5264ZM22.1793 21.5439V20.9825C22.1793 20.7369 21.931 20.5615 21.6828 20.5615H19.0345C18.7448 20.5615 18.5379 20.7369 18.5379 20.9825V21.5439C18.5379 21.7895 18.7448 21.965 19.0345 21.965H21.6828C21.931 21.965 22.1793 21.7895 22.1793 21.5439ZM22.5103 4.66672H1.48966C1.24138 4.66672 0.993103 4.70181 0.786207 4.77199L3.31034 1.85971C3.8069 1.2983 4.88276 0.842163 5.71034 0.842163H18.2897C19.0759 0.842163 20.1517 1.2983 20.6483 1.85971L23.2138 4.77199C22.9655 4.70181 22.7172 4.66672 22.5103 4.66672Z" fill="white"/>
</g>
<defs>
<clipPath id="clip0_8_3064">
<rect width="24" height="24" fill="white"/>
</clipPath>
</defs>
</svg>
