<svg width="22" height="23" viewBox="0 0 22 23" fill="none" xmlns="http://www.w3.org/2000/svg">
<path d="M20.5848 5.00204C20.5752 4.8414 20.5143 4.68878 20.4118 4.56865C20.3094 4.44851 20.1713 4.36779 20.0198 4.33944C16.3231 3.64674 14.7677 3.10498 11.4294 1.53452C11.096 1.40469 10.8893 1.40694 10.5701 1.53452C7.23182 3.10678 5.67635 3.64584 1.97975 4.33944C1.8282 4.36779 1.69015 4.44851 1.5877 4.56865C1.48525 4.68878 1.42433 4.8414 1.41471 5.00204C1.24928 7.74676 1.6012 10.3028 2.46143 12.6006C3.16484 14.4742 4.20691 16.1887 5.53069 17.6502C7.4501 19.7809 9.57834 21.0248 10.6758 21.4956C10.8839 21.5843 11.1169 21.5843 11.325 21.4956C12.4852 21.005 14.5344 19.7966 16.4688 17.6493C17.7925 16.1881 18.8346 14.4739 19.5381 12.6006C20.3983 10.3033 20.7502 7.74676 20.5848 5.00204Z" fill="white"/>
</svg>
