<svg width="49" height="41" viewBox="0 0 49 41" fill="none" xmlns="http://www.w3.org/2000/svg">
<path d="M48.2963 25.7503L40.3914 4.6505C39.344 1.87335 36.66 0 33.6977 0C30.7355 0 28.0514 1.87335 27.004 4.6505C26.7094 5.45571 26.5458 6.31022 26.5458 7.18116V16.4164H22.4542V7.18116C22.4542 3.22084 19.2465 0 15.3023 0C12.34 0 9.65598 1.87335 8.60855 4.6505L0.720107 25.7503C0.245491 27.0321 0 28.3631 0 29.7271C0 35.9551 5.04075 41 11.2271 41C17.4135 41 22.4542 35.9387 22.4542 29.7271V28.7082H26.5458V29.7271C26.5458 35.9551 31.5865 41 37.7729 41C43.9593 41 49 35.9387 49 29.7271C49 28.3631 48.7545 27.0321 48.2799 25.7503H48.2963ZM11.2271 36.9082C7.2829 36.9082 4.07515 33.6874 4.07515 29.7271C4.07515 28.8561 4.22245 28.0016 4.5334 27.1964C5.58083 24.4192 8.26486 22.5459 11.2271 22.5459C15.1713 22.5459 18.3791 25.7667 18.3791 29.7271C18.3791 33.6874 15.1713 36.9082 11.2271 36.9082ZM37.7892 36.9082C33.845 36.9082 30.6373 33.6874 30.6373 29.7271C30.6373 25.7667 33.845 22.5459 37.7892 22.5459C40.7515 22.5459 43.4355 24.4192 44.483 27.1964C44.7776 28.0016 44.9412 28.8561 44.9412 29.7271C44.9412 33.6874 41.7335 36.9082 37.7892 36.9082Z" fill="#243453"/>
</svg>
