<svg width="49" height="49" viewBox="0 0 49 49" fill="none" xmlns="http://www.w3.org/2000/svg">
<path d="M48.1651 46.8955L37.0979 26.7421C36.9238 26.4126 36.5755 26.2382 36.1885 26.2189C35.8209 26.2189 35.4726 26.4514 35.3178 26.7808L31.4869 34.7259L20.1295 13.8555V10.0767H31.1967C31.603 10.0767 31.9706 9.82481 32.1254 9.45662C32.2802 9.08843 32.2028 8.64273 31.9125 8.35206L28.604 5.03836L31.9125 1.72467C32.2028 1.434 32.2802 1.00767 32.1254 0.620106C31.9706 0.251918 31.603 0 31.1967 0H19.1234C18.5623 0 18.1173 0.445701 18.1173 1.00767V13.8555L0.123451 46.8762C-0.0506825 47.1862 -0.0313343 47.5738 0.123451 47.8644C0.278237 48.1551 0.626528 48.3489 0.994144 48.3489H47.275C47.6233 48.3489 47.9522 48.1551 48.1457 47.8451C48.3198 47.535 48.3392 47.1668 48.1457 46.8568L48.1651 46.8955ZM19.104 16.239L24.2507 25.6957L22.2384 27.711L19.9167 24.6105C19.5297 24.1066 18.6784 24.1066 18.3107 24.6105L15.989 27.711L13.9768 25.6957L19.1234 16.239H19.104Z" fill="#243453"/>
</svg>
