<svg width="30" height="30" viewBox="0 0 30 30" fill="none" xmlns="http://www.w3.org/2000/svg">
<path d="M8.75 8.75H3.75C3.05964 8.75 2.5 9.30964 2.5 10V20C2.5 20.6904 3.05964 21.25 3.75 21.25H8.75C9.44036 21.25 10 20.6904 10 20V10C10 9.30964 9.44036 8.75 8.75 8.75Z" fill="white"/>
<path d="M26.25 2.5H21.25C20.5596 2.5 20 3.05964 20 3.75V8.75C20 9.44036 20.5596 10 21.25 10H26.25C26.9404 10 27.5 9.44036 27.5 8.75V3.75C27.5 3.05964 26.9404 2.5 26.25 2.5Z" fill="white"/>
<path d="M26.25 11.25H21.25C20.5596 11.25 20 11.8096 20 12.5V17.5C20 18.1904 20.5596 18.75 21.25 18.75H26.25C26.9404 18.75 27.5 18.1904 27.5 17.5V12.5C27.5 11.8096 26.9404 11.25 26.25 11.25Z" fill="white"/>
<path d="M26.25 20H21.25C20.5596 20 20 20.5596 20 21.25V26.25C20 26.9404 20.5596 27.5 21.25 27.5H26.25C26.9404 27.5 27.5 26.9404 27.5 26.25V21.25C27.5 20.5596 26.9404 20 26.25 20Z" fill="white"/>
<path d="M18.75 6.875V5.625C18.75 5.45924 18.6842 5.30027 18.5669 5.18306C18.4497 5.06585 18.2908 5 18.125 5H14.375C14.2092 5 14.0503 5.06585 13.9331 5.18306C13.8158 5.30027 13.75 5.45924 13.75 5.625V13.75H11.875C11.7092 13.75 11.5503 13.8158 11.4331 13.9331C11.3158 14.0503 11.25 14.2092 11.25 14.375V15.625C11.25 15.7908 11.3158 15.9497 11.4331 16.0669C11.5503 16.1842 11.7092 16.25 11.875 16.25H13.75V24.375C13.75 24.5408 13.8158 24.6997 13.9331 24.8169C14.0503 24.9342 14.2092 25 14.375 25H18.125C18.2908 25 18.4497 24.9342 18.5669 24.8169C18.6842 24.6997 18.75 24.5408 18.75 24.375V23.125C18.75 22.9592 18.6842 22.8003 18.5669 22.6831C18.4497 22.5658 18.2908 22.5 18.125 22.5H16.25V16.25H18.125C18.2908 16.25 18.4497 16.1842 18.5669 16.0669C18.6842 15.9497 18.75 15.7908 18.75 15.625V14.375C18.75 14.2092 18.6842 14.0503 18.5669 13.9331C18.4497 13.8158 18.2908 13.75 18.125 13.75H16.25V7.5H18.125C18.2908 7.5 18.4497 7.43415 18.5669 7.31694C18.6842 7.19973 18.75 7.04076 18.75 6.875Z" fill="white"/>
</svg>
